# xmcd
#
# Track frame offsets: 
#        150
#        20721
#        35926
#        57021
#        71225
#        88631
#        112247
#        131148
#        147438
#        179724
#
# Disc length: 2638 seconds
#
# Revision: 1
# Processed by: cddbd v1.5.2PL0 Copyright (c) Steve Scherf et al.
# Submitted via: ExactAudioCopyFreeDBPlugin 1.0
#
DISCID=a40a4c0a
DTITLE=The Suffers - The Suffers
DYEAR=2015
DGENRE=Soul
TTITLE0=Make Some Room
TTITLE1=Dutch
TTITLE2=Midtown
TTITLE3=Slow It Down
TTITLE4=Gwan
TTITLE5=Better
TTITLE6=Good Day
TTITLE7=Stay
TTITLE8=Giver
TTITLE9=Peanuts
EXTD=
EXTT0=
EXTT1=
EXTT2=
EXTT3=
EXTT4=
EXTT5=
EXTT6=
EXTT7=
EXTT8=
EXTT9=
PLAYORDER=
